<svg clip-rule="evenodd" fill-rule="evenodd" stroke-linejoin="round" stroke-miterlimit="2" viewBox="0 0 510 510" xmlns="http://www.w3.org/2000/svg"><path d="m301.495 297.578c-3.251 24.974-13.703 47.672-29.174 65.942-6.138 7.21-9.5 15.004-10.523 24.406-3.458 31.421 4.969 68.151 24.114 107.074h-146.046c-5.845-32.736-25.575-45.256-59.188-37.656-22.457 3.897-33.418.779-32.93-9.402-.147-15.784-2.826-21.532-6.918-24.552-9.012-6.966 1.023-15.881 11.351-21.483-8.672-.682-19.827-7.648-17.391-13.25 3.799-13.105 1.997-18.414-3.946-21.483-11.497-5.651-13.884-12.812-7.015-21.581 7.94-8.622 14.224-17.342 18.852-26.257 4.287-8.184 5.846-16.319 4.92-25.526-.438-4.238-.633-8.525-.633-12.91 0-67.679 52.576-123.088 119.126-127.538l3.769 8.478c-2.148 4.281-3.984 8.709-5.499 13.258.001-.001-8.826 3.396-8.826 3.396-6.177 2.378-10.253 8.314-10.253 14.933v26.546c0 6.619 4.076 12.555 10.253 14.932l8.832 3.399c1.512 4.538 3.346 8.963 5.491 13.236-.001-.001-3.841 8.636-3.841 8.636-2.69 6.05-1.375 13.132 3.307 17.814l18.766 18.767c4.677 4.676 11.748 5.993 17.794 3.315l8.663-3.837c4.283 2.146 8.713 3.985 13.264 5.497-.001 0 3.391 8.813 3.391 8.813 2.377 6.177 8.313 10.253 14.932 10.253h26.546c6.619 0 12.555-4.076 14.933-10.253l3.391-8.813c3.573-1.185 7.075-2.572 10.488-4.154zm-22.556-172.723c8.662 2.059 16.922 5.481 24.514 10.159l15.934-7.084 18.766 18.767-7.057 15.933c4.678 7.592 8.1 15.853 10.158 24.541l16.254 6.256v26.546l-16.254 6.255c-2.058 8.662-5.507 16.923-10.158 24.515l7.057 15.933-18.766 18.767-15.934-7.058c-7.565 4.679-15.852 8.1-24.514 10.159l-6.256 16.254h-26.546l-6.256-16.254c-8.688-2.059-16.948-5.507-24.541-10.159l-15.933 7.058-18.767-18.767 7.085-15.933c-4.679-7.566-8.101-15.853-10.186-24.515l-16.254-6.255v-26.546l16.254-6.256c2.085-8.688 5.507-16.949 10.186-24.541l-7.085-15.933 18.767-18.767 15.933 7.084c7.593-4.678 15.853-8.1 24.515-10.159l6.282-16.28h26.546zm-19.542 35.529c-25.584 0-46.302 20.719-46.302 46.302 0 25.584 20.718 46.329 46.302 46.329s46.329-20.745 46.329-46.329c0-25.583-20.745-46.302-46.329-46.302zm177.553 65.888c5.849 1.39 11.426 3.701 16.553 6.86l10.758-4.784 12.672 12.672-4.766 10.758c3.159 5.127 5.47 10.705 6.86 16.571l10.975 4.224v17.924l-10.975 4.224c-1.39 5.849-3.719 11.427-6.86 16.553l4.766 10.758-12.672 12.672-10.758-4.765c-5.109 3.159-10.704 5.469-16.553 6.859l-4.224 10.975h-17.924l-4.224-10.975c-5.867-1.39-11.444-3.719-16.571-6.859l-10.758 4.765-12.672-12.672 4.784-10.758c-3.159-5.108-5.47-10.704-6.878-16.553l-10.975-4.224v-17.924l10.975-4.224c1.408-5.866 3.719-11.444 6.878-16.571l-4.784-10.758 12.672-12.672 10.758 4.784c5.127-3.159 10.704-5.47 16.553-6.86l4.242-10.993h17.924zm-13.194 28.607c-14.724 0-26.648 11.924-26.648 26.649 0 14.724 11.924 26.663 26.648 26.663s26.664-11.939 26.664-26.663c0-14.725-11.94-26.649-26.664-26.649zm-8.354-228.886c5.849 1.39 11.427 3.7 16.553 6.859l10.758-4.783 12.672 12.672-4.765 10.758c3.159 5.126 5.469 10.704 6.859 16.571l10.975 4.223v17.925l-10.975 4.224c-1.39 5.848-3.719 11.426-6.859 16.553l4.765 10.758-12.672 12.672-10.758-4.766c-5.108 3.159-10.704 5.47-16.553 6.859l-4.224 10.975h-17.924l-4.224-10.975c-5.866-1.389-11.444-3.718-16.571-6.859l-10.758 4.766-12.672-12.672 4.784-10.758c-3.159-5.109-5.47-10.705-6.878-16.553l-10.975-4.224v-17.925l10.975-4.223c1.408-5.867 3.719-11.445 6.878-16.571l-4.784-10.758 12.672-12.672 10.758 4.783c5.127-3.159 10.705-5.469 16.553-6.859l4.242-10.993h17.924zm-13.193 28.607c-14.725 0-26.649 11.924-26.649 26.648s11.924 26.663 26.649 26.663c14.724 0 26.663-11.939 26.663-26.663s-11.939-26.648-26.663-26.648z"/></svg>